<?xml version="1.0" encoding="UTF-8"?>
<svg width="11px" height="14px" viewBox="0 0 11 14" version="1.1" xmlns="http://www.w3.org/2000/svg" xmlns:xlink="http://www.w3.org/1999/xlink">
    <!-- Generator: Sketch 49.3 (51167) - http://www.bohemiancoding.com/sketch -->
    <title>密码</title>
    <desc>Created with Sketch.</desc>
    <defs></defs>
    <g id="1.1-首页" stroke="none" stroke-width="1" fill="none" fill-rule="evenodd">
        <g id="1.1首页登录" transform="translate(-1030.000000, -511.000000)" fill="#80848F" fill-rule="nonzero">
            <g id="登录模块" transform="translate(972.000000, 286.000000)">
                <g id="密码" transform="translate(58.000000, 221.000000)">
                    <g transform="translate(0.000000, 3.000000)" id="Shape">
                        <path d="M2.45766965,13.7875142 L2.35766965,13.7836142 C2.39018984,13.7863142 2.42353487,13.7875142 2.45766965,13.7875142 Z M1.22939267,8.85681482 C1.22739267,8.88955636 1.22609267,8.92273142 1.22609267,8.95681482 L1.22939267,8.85681482 Z M1.22949267,12.6495962 L1.22609267,12.5495962 C1.22609267,12.5837032 1.22739267,12.6169221 1.22949267,12.6495962 Z M10.995442,7.59227107 C10.9396853,6.97963076 10.4269076,6.49841333 9.79892898,6.48838501 L3.05783281,6.49224206 L3.05336974,4.65007051 C3.05336974,4.64868512 3.05327478,4.64731547 3.05325896,4.64593009 L3.05951042,4.64593009 C3.06770853,3.31254203 4.15671229,2.23428564 5.49898711,2.23428564 C6.76626026,2.23428564 7.80753139,3.1954768 7.92683134,4.42503953 C7.89809664,4.49661894 7.8833571,4.57299515 7.8834035,4.65007051 L7.8887845,4.67365358 C7.8887845,5.0093896 8.1622976,5.2812876 8.49963887,5.2812876 C8.83701179,5.2812876 9.11054072,5.0093896 9.11054072,4.67365358 L9.10515972,4.65007051 C9.10515972,4.64868512 9.10508059,4.64731547 9.10506476,4.64593009 L9.14709987,4.64593009 C9.1471157,4.64240365 9.14724231,4.63892444 9.14724231,4.635398 C9.14724231,2.6275782 7.51086415,1 5.49238747,1 C3.49983454,1 1.87977348,2.58615827 1.83854552,4.55841454 C1.83392976,4.58875573 1.83161784,4.61939963 1.83162935,4.65008625 L1.83469969,5.91818793 L1.8375801,5.91818793 L1.8375801,6.48786549 L1.83607659,6.48786549 L1.83609242,6.49293475 L1.1122212,6.49334407 C0.491237889,6.55080616 0.00495368599,7.0704366 0.00495368599,7.70316503 L0.00495368599,8.348787 L0,8.348787 L0.00389331231,13.1340879 L0.00493785951,13.1340879 L0.00493785951,13.7797414 C0.00493785951,14.4509143 0.551964065,14.9950567 1.22667825,14.9950567 L1.83756428,14.9950567 L1.83756428,15 L9.16808577,14.9959698 L9.16808577,14.9950409 L9.77898762,14.9950409 C10.4438894,14.9950409 10.9844742,14.4664527 11,13.8086929 L10.995442,7.59227107 Z M9.78672761,7.70370029 L9.78862761,8.12840022 L9.77132761,7.70370029 L9.78672761,7.70370029 Z M1.22621929,13.7850311 L1.2212656,7.70845469 L1.23432244,7.70845469 L1.22661495,8.85681482 C1.23880133,7.89208148 1.49237308,7.71774308 2.44784889,7.71774308 L2.05177559,7.70799814 L2.37821241,7.70779348 C2.40128741,7.71042257 2.42469476,7.71191815 2.44846613,7.71191815 C2.47241158,7.71191815 2.49600885,7.71037534 2.51925794,7.70771476 L9.1141175,7.70404664 L8.55756376,7.71771159 C9.46085969,7.71771159 9.73679425,7.87370935 9.77450873,8.70594929 L9.77743663,12.6944479 C9.7556594,13.5334731 9.52771072,13.7529468 8.7543343,13.7809064 L1.22621929,13.7850311 Z M9.06081394,13.7807804 L9.77121683,13.7758844 L9.77749994,12.8194319 L9.77821213,13.7803711 L9.06081394,13.7807804 Z M1.22663077,12.6276029 L1.23446488,13.7758844 L2.35765383,13.7835985 C1.47684731,13.7710355 1.23869055,13.5609289 1.22663077,12.6276029 Z"></path>
                    </g>
                </g>
            </g>
        </g>
    </g>
</svg>