<?xml version="1.0" encoding="UTF-8"?>
<svg width="12px" height="13px" viewBox="0 0 12 13" version="1.1" xmlns="http://www.w3.org/2000/svg" xmlns:xlink="http://www.w3.org/1999/xlink">
    <!-- Generator: Sketch 49.3 (51167) - http://www.bohemiancoding.com/sketch -->
    <title>Shape</title>
    <desc>Created with Sketch.</desc>
    <defs></defs>
    <g id="1.1-首页" stroke="none" stroke-width="1" fill="none" fill-rule="evenodd">
        <g id="1.1首页登录" transform="translate(-1027.000000, -434.000000)" fill="#80848F" fill-rule="nonzero">
            <g id="登录模块" transform="translate(972.000000, 286.000000)">
                <g id="账号" transform="translate(55.000000, 143.000000)">
                    <g id="账户" transform="translate(0.000000, 5.000000)">
                        <path d="M11.9815027,12.4419861 C11.9815027,12.7351509 11.7391739,12.9728714 11.4401622,12.9728714 C11.1411372,12.9728714 10.8988084,12.7351509 10.8988084,12.4419861 L10.8940503,12.3924312 C10.8940503,12.3714288 10.8979397,12.3512696 10.9001049,12.3306823 C10.562133,10.0004636 8.52483887,8.28807169 6.04397251,8.2612057 C6.02407138,8.26162083 6.00502562,8.26415045 5.98512447,8.26415045 C5.96522332,8.26415045 5.94616422,8.2616338 5.92670413,8.2612057 C3.47439973,8.28808467 1.45656571,9.9622337 1.08441839,12.252134 C1.09654085,12.2970836 1.10561598,12.3437066 1.10561598,12.3924183 L1.11081514,12.4423882 C1.11081514,12.7401712 0.864583619,12.9816927 0.560813894,12.9816927 C0.257458487,12.9816927 0.0108126504,12.7401842 0.0108126504,12.4423882 L0.0103849513,12.4373549 L0,12.4373549 C0.00129645133,12.4218139 0.00475809292,12.406688 0.00648224336,12.3911469 C0.00648224336,12.3466254 0.0134055398,12.3046335 0.0237904912,12.2630438 C0.305480522,10.1151272 1.773741,8.37795792 3.77167388,7.62991345 C2.6084796,6.89910939 1.84991065,5.60757036 1.84991065,4.13206873 C1.84991065,1.85014654 3.65830823,0 5.9855522,0 C8.31236847,0 10.1207527,1.85014654 10.1207527,4.13206873 C10.1207527,5.60714226 9.36303912,6.89826618 8.20027252,7.62907024 C10.1843588,8.37123818 11.645696,10.0882353 11.9434245,12.2147603 C11.9637667,12.2706197 11.9771723,12.329839 11.9771723,12.3924182 L11.9815027,12.4419861 Z M9.17476918,4.13332706 C9.17476918,2.4053694 7.74635389,1.00464851 5.98424237,1.00464851 C4.22213085,1.00464851 2.79371555,2.40578514 2.79371555,4.13332706 C2.79371555,5.86131069 4.22213084,7.26201859 5.98424237,7.26201859 C7.74591217,7.26201859 9.17476918,5.8613107 9.17476918,4.13332706 Z" id="Shape"></path>
                    </g>
                </g>
            </g>
        </g>
    </g>
</svg>