<?xml version="1.0" encoding="UTF-8"?>
<svg width="18px" height="18px" viewBox="0 0 18 18" version="1.1" xmlns="http://www.w3.org/2000/svg" xmlns:xlink="http://www.w3.org/1999/xlink">
    <!-- Generator: Sketch 50.2 (55047) - http://www.bohemiancoding.com/sketch -->
    <title>Group 10</title>
    <desc>Created with Sketch.</desc>
    <defs>
        <path d="M7.09736631,0 L0.902636037,0 C0.663954631,0.00053506914 0.435308406,0.10399479 0.26728578,0.2874885 C0.0992631551,0.47098221 0.00571557535,0.719383058 0.00734062385,0.977731877 L0.00734062385,9.01948759 C0.00734062385,9.55690963 0.402614018,9.99721946 0.902636037,9.99721946 L7.09736631,9.99721946 C7.33600674,9.99668403 7.56461706,9.8932592 7.73263288,9.70982064 C7.9006487,9.52638207 7.99422402,9.27804673 7.99266172,9.01974181 L7.99266172,0.968834161 C7.99240246,0.433778847 7.59167893,0.0001402504 7.09736631,0 Z M2.00789842,2.12274081 L6.00055897,2.12274081 C6.05648724,2.12260095 6.11013462,2.14672729 6.14950504,2.18972494 C6.18887546,2.23272258 6.21068478,2.29100484 6.21005622,2.35153923 C6.21005622,2.48373386 6.11329292,2.58084608 6.00032411,2.58084608 L2.00766356,2.58084608 C1.88670943,2.58084608 1.79793145,2.44865144 1.79793145,2.35179345 C1.79793145,2.22849652 1.88670943,2.12299503 2.00766356,2.12299503 L2.00789842,2.12274081 Z M2.00789842,3.73449851 L4.5162287,3.73449851 C4.57223883,3.73428951 4.6259833,3.75842058 4.66541168,3.80148109 C4.70484005,3.84454161 4.7266534,3.90292876 4.72596081,3.96355114 C4.72596081,4.09574578 4.6291975,4.19260377 4.5162287,4.19260377 L2.00789842,4.19260377 C1.88670943,4.19260377 1.79793145,4.06040914 1.79793145,3.96380536 C1.79793145,3.84025422 1.88670943,3.73475273 2.00766356,3.73475273 L2.00789842,3.73449851 Z M3.24985072,5.55802185 C3.24985072,5.69021648 3.15308741,5.78682026 3.04011861,5.78682026 L2.00766356,5.78682026 C1.95169464,5.7870283 1.89798651,5.76293202 1.85856508,5.71992687 C1.81914365,5.67692172 1.79730225,5.61860043 1.79793145,5.55802185 C1.79793145,5.42582721 1.89469475,5.32896922 2.00766356,5.32896922 L3.04011861,5.32896922 C3.15285255,5.32896922 3.27404154,5.42582721 3.24985072,5.55776763 L3.24985072,5.55802185 Z M6.32302503,8.37656405 L5.33895163,7.86558093 L4.35487824,8.37656405 L4.58880117,7.35459782 L3.8630764,6.33314002 L4.8471498,6.33314002 L5.33895163,5.31117378 L5.83098833,6.33314002 L6.81506172,6.33314002 L6.08910209,7.35485204 L6.32302503,8.37656405 Z" id="path-1"></path>
        <filter x="-56.4%" y="-45.0%" width="212.7%" height="190.0%" filterUnits="objectBoundingBox" id="filter-2">
            <feOffset dx="0" dy="0" in="SourceAlpha" result="shadowOffsetOuter1"></feOffset>
            <feGaussianBlur stdDeviation="1.5" in="shadowOffsetOuter1" result="shadowBlurOuter1"></feGaussianBlur>
            <feColorMatrix values="0 0 0 0 0.0137993472   0 0 0 0 0.50212585   0 0 0 0 0.159986262  0 0 0 1 0" type="matrix" in="shadowBlurOuter1"></feColorMatrix>
        </filter>
    </defs>
    <g id="审核管理" stroke="none" stroke-width="1" fill="none" fill-rule="evenodd">
        <g id="签约申请" transform="translate(-32.000000, -560.000000)">
            <g id="leif" transform="translate(20.000000, 94.000000)">
                <g id="二级菜单">
                    <g id="Group-10" transform="translate(12.000000, 466.000000)">
                        <circle id="Oval-Copy-3" fill="#00AB34" cx="9" cy="9" r="9"></circle>
                        <g id="合同" transform="translate(5.000000, 4.000000)" fill-rule="nonzero">
                            <g id="Shape">
                                <use fill="black" fill-opacity="1" filter="url(#filter-2)" xlink:href="#path-1"></use>
                                <use fill="#FFFFFF" fill-rule="evenodd" xlink:href="#path-1"></use>
                            </g>
                        </g>
                    </g>
                </g>
            </g>
        </g>
    </g>
</svg>