<?xml version="1.0" encoding="UTF-8"?>
<svg width="28px" height="28px" viewBox="0 0 28 28" version="1.1" xmlns="http://www.w3.org/2000/svg" xmlns:xlink="http://www.w3.org/1999/xlink">
    <!-- Generator: Sketch 50.2 (55047) - http://www.bohemiancoding.com/sketch -->
    <title>Group</title>
    <desc>Created with Sketch.</desc>
    <defs></defs>
    <g id="数据管理" stroke="none" stroke-width="1" fill="none" fill-rule="evenodd">
        <g id="会员列表-添加新会员" transform="translate(-235.000000, -643.000000)">
            <g id="logo-copy-2" transform="translate(235.000000, 613.000000)">
                <g id="联系人_个人中心" transform="translate(0.000000, 30.000000)">
                    <g id="Group">
                        <rect id="Rectangle-2" fill="#079EED" x="0" y="0" width="28" height="28" rx="4"></rect>
                        <g id="健康-" transform="translate(6.000000, 8.000000)" fill="#FFFFFF" fill-rule="nonzero">
                            <path d="M0.51262439,7.06938851 L5.64561171,7.06938851 L6.45257366,3.14977471 C6.49298331,2.95038616 6.66629602,2.80959068 6.86379707,2.81570575 C7.06110689,2.82118505 7.22652538,2.97103349 7.25716293,3.17204598 L7.92925659,7.58896552 L8.34872195,6.21033563 C8.39764451,6.04997369 8.53422779,5.9348407 8.69640181,5.9172586 C8.85857584,5.8996765 9.01540457,5.98299921 9.09561756,6.12936092 L9.68466732,7.20649195 L15.4420449,7.16053333 C15.67232,6.69862989 15.8417795,6.19257011 15.9255727,5.63385747 C16.1589698,4.07757241 15.7688507,2.51176092 14.8820917,1.44531494 C14.0966088,0.500652874 12.9799493,0.00141609195 11.6526205,0.00141609195 C9.59313171,0.00141609195 8.42289951,1.42716322 7.99993756,2.0701977 C7.57697561,1.42703448 6.40674341,0.00141609195 4.34725463,0.00141609195 C3.02005073,0.00141609195 1.90326634,0.500652874 1.11765854,1.44531494 C0.23102439,2.51163218 -0.159094634,4.07744368 0.074302439,5.63385747 C0.148971466,6.13250797 0.296768497,6.61655223 0.51262439,7.06938851 Z" id="Shape"></path>
                            <path d="M9.45002146,8.05202759 C9.30291512,8.04945287 9.16342634,7.97105287 9.09037268,7.83729655 L8.84698537,7.39225747 L8.18663024,9.56196782 C8.12961298,9.74885715 7.95532294,9.87071408 7.7658015,9.85619518 C7.57628006,9.84167628 7.42137627,9.6946004 7.39178146,9.50107586 L6.79236683,5.56266667 L6.3772722,7.57892414 C6.33716941,7.77387977 6.1702322,7.91333714 5.97691317,7.91337931 L1.01063805,7.91337931 C1.98356293,9.2811954 3.4889678,10.2024276 4.69341659,10.9386667 C5.28384,11.2995126 5.84142049,11.6404046 6.22916683,11.966492 C7.66101854,13.1706851 7.79214049,13.7783172 7.79688585,13.8036782 C7.80949854,13.9089839 7.89591415,13.9922759 7.99956293,13.9922759 C8.10520976,13.9922759 8.19324878,13.912846 8.20273951,13.8044506 C8.20373854,13.7984 8.31488,13.1906391 9.77083317,11.966492 C10.1585795,11.6404046 10.71616,11.2993839 11.3065834,10.9386667 C12.4829346,10.2195494 13.9466302,9.3241931 14.9205541,8.00838621 L9.45002146,8.05202759 Z" id="Shape"></path>
                        </g>
                    </g>
                </g>
            </g>
        </g>
    </g>
</svg>