<?xml version="1.0" encoding="UTF-8"?>
<svg width="20px" height="20px" viewBox="0 0 20 20" version="1.1" xmlns="http://www.w3.org/2000/svg" xmlns:xlink="http://www.w3.org/1999/xlink">
    <!-- Generator: Sketch 50.2 (55047) - http://www.bohemiancoding.com/sketch -->
    <title>Group 10</title>
    <desc>Created with Sketch.</desc>
    <defs>
        <path d="M11.4957313,5.00579374 L11.1199628,4.86674392 C10.7859464,4.75550406 10.5075994,4.50521437 10.3684259,4.17149479 C10.2292524,3.85168019 10.2292524,3.47624565 10.3684259,3.15643105 L10.5354341,2.79490151 C10.6746076,2.50289687 10.6050209,2.16917729 10.3823433,1.94669757 L9.99265747,1.55735805 C9.76997987,1.33487833 9.42204611,1.2792584 9.14369911,1.40440324 L8.781848,1.57126304 C8.46174895,1.71031286 8.08598049,1.71031286 7.76588143,1.57126304 C7.43186503,1.43221321 7.18135272,1.16801854 7.07001392,0.820393975 L6.98650982,0.486674392 C6.87517102,0.194669757 6.59682401,0 6.27672496,0 L5.72003095,0 C5.39993189,0 5.12158489,0.194669757 5.01024609,0.486674392 L4.87107258,0.862108922 C4.75973378,1.19582851 4.50922148,1.47392816 4.17520507,1.61297798 C3.85510602,1.75202781 3.47933756,1.75202781 3.1592385,1.61297798 L2.7973874,1.44611819 C2.50512304,1.30706837 2.17110664,1.37659328 1.94842903,1.599073 L1.55874323,1.98841251 C1.33606562,2.21089224 1.26647887,2.54461182 1.40565237,2.83661645 L1.57266058,3.198146 C1.71183408,3.5179606 1.71183408,3.89339513 1.57266058,4.21320973 C1.43348707,4.53302433 1.15514007,4.797219 0.821123664,4.90845886 L0.445355208,5.04750869 C0.180925553,5.15874855 0.0139173502,5.42294322 0,5.70104287 L0,6.25724218 C0,6.57705678 0.208760254,6.85515643 0.501024609,6.95249131 L0.876793065,7.09154114 C1.21080947,7.202781 1.48915648,7.45307068 1.62832998,7.78679027 C1.76750348,8.10660487 1.76750348,8.4820394 1.62832998,8.801854 L1.46132178,9.16338355 C1.32214827,9.45538818 1.39173502,9.78910776 1.61441263,10.0115875 L2.00409843,10.400927 C2.22677604,10.6234067 2.57470979,10.6790267 2.8530568,10.5538818 L3.21490791,10.387022 C3.53500696,10.2479722 3.91077542,10.2479722 4.23087447,10.387022 C4.56489088,10.5260718 4.81540318,10.7902665 4.92674198,11.1378911 L5.06591549,11.5133256 C5.17725429,11.8053302 5.45560129,12 5.77570035,12 L6.33239436,12 C6.65249341,12 6.93084042,11.8053302 7.04217922,11.5133256 L7.18135272,11.1517961 C7.29269153,10.8180765 7.55712118,10.5399768 7.89113759,10.400927 C8.21123664,10.2618772 8.57308775,10.2618772 8.8931868,10.400927 L9.25503791,10.5677868 C9.54730226,10.7068366 9.88131867,10.6373117 10.1039963,10.414832 L10.4936821,10.0254925 C10.7163597,9.80301275 10.7859464,9.46929316 10.6467729,9.17728853 L10.4797647,8.81575898 C10.3405912,8.49594438 10.3405912,8.13441483 10.4797647,7.81460023 C10.6189382,7.49478563 10.8972852,7.23059096 11.2313016,7.1193511 L11.6070701,6.98030127 C11.8714998,6.84125145 12.0245906,6.5631518 11.9967559,6.27114716 L11.9967559,5.71494786 C11.9967559,5.39513326 11.801913,5.1170336 11.4957313,5.00579374 Z M8.21123664,6.42410197 C7.98855904,7.5225956 6.98650982,8.28736964 5.85920445,8.21784473 C4.73189908,8.14831981 3.84118867,7.25840093 3.77160191,6.13209733 C3.70201516,5.01969873 4.46746943,4.01853998 5.5669401,3.79606025 C6.30455966,3.64310545 7.05609657,3.87949015 7.59887323,4.40787949 C8.12773254,4.93626883 8.36432749,5.68713789 8.21123664,6.42410197 Z" id="path-1"></path>
        <filter x="-54.2%" y="-45.8%" width="208.3%" height="208.3%" filterUnits="objectBoundingBox" id="filter-2">
            <feOffset dx="0" dy="1" in="SourceAlpha" result="shadowOffsetOuter1"></feOffset>
            <feGaussianBlur stdDeviation="2" in="shadowOffsetOuter1" result="shadowBlurOuter1"></feGaussianBlur>
            <feColorMatrix values="0 0 0 0 0.724569515   0 0 0 0 0.103836667   0 0 0 0 0.103836667  0 0 0 0.226732337 0" type="matrix" in="shadowBlurOuter1"></feColorMatrix>
        </filter>
    </defs>
    <g id="数据管理" stroke="none" stroke-width="1" fill="none" fill-rule="evenodd">
        <g id="会员列表" transform="translate(-31.000000, -672.000000)">
            <g id="leif" transform="translate(20.000000, 94.000000)">
                <g id="二级菜单">
                    <g id="Group-10" transform="translate(12.000000, 578.000000)">
                        <circle id="Oval-Copy-5" fill="#FD7965" cx="9" cy="9" r="9"></circle>
                        <g id="设置" transform="translate(3.000000, 3.000000)" fill-rule="nonzero">
                            <g id="Shape">
                                <use fill="black" fill-opacity="1" filter="url(#filter-2)" xlink:href="#path-1"></use>
                                <use fill="#FFFFFF" fill-rule="evenodd" xlink:href="#path-1"></use>
                            </g>
                        </g>
                    </g>
                </g>
            </g>
        </g>
    </g>
</svg>